<svg xmlns="http://www.w3.org/2000/svg" xmlns:xlink="http://www.w3.org/1999/xlink" fill="none" version="1.1" width="200" height="200" viewBox="0 0 200 200"><defs><clipPath id="master_svg0_8_30"><rect x="200" y="200" width="200" height="200" rx="0"/></clipPath></defs><g style="mix-blend-mode:passthrough"><g style="mix-blend-mode:passthrough" transform="matrix(-1,0,0,-1,400,400)" clip-path="url(#master_svg0_8_30)"><g style="mix-blend-mode:passthrough"><path d="M294.10745649414065,269.10743412353514C297.3618564941406,265.8530721235351,302.6381564941406,265.8530721235351,305.89255649414065,269.10743412353514C305.89255649414065,269.10743412353514,355.8926564941406,319.1074641235352,355.8926564941406,319.1074641235352C359.14665649414064,322.36186412353516,359.14665649414064,327.63816412353515,355.8926564941406,330.8925641235352C352.6386564941406,334.1468641235351,347.3616564941406,334.1468641235351,344.10765649414066,330.8925641235352C344.10765649414066,330.8925641235352,299.99995649414063,286.78506412353516,299.99995649414063,286.78506412353516C299.99995649414063,286.78506412353516,255.89255649414062,330.8925641235352,255.89255649414062,330.8925641235352C252.63815649414062,334.1468641235351,247.36179649414063,334.1468641235351,244.1074264941406,330.8925641235352C240.85306449414063,327.63816412353515,240.85306449414063,322.36186412353516,244.1074264941406,319.1074641235352C244.1074264941406,319.1074641235352,294.10745649414065,269.10743412353514,294.10745649414065,269.10743412353514C294.10745649414065,269.10743412353514,294.10745649414065,269.10743412353514,294.10745649414065,269.10743412353514Z" fill-rule="evenodd" fill="#FFFFFF" fill-opacity="1"/></g></g></g></svg>