<svg xmlns="http://www.w3.org/2000/svg" xmlns:xlink="http://www.w3.org/1999/xlink" fill="none" version="1.1" width="200" height="200" viewBox="0 0 200 200"><defs><clipPath id="master_svg0_10_20"><rect x="0" y="0" width="200" height="200" rx="0"/></clipPath></defs><g style="mix-blend-mode:passthrough"><g clip-path="url(#master_svg0_10_20)"><g><path d="M167.35853744506835,87.49990068359375L177.37453744506837,93.50830068359375C180.07653744506837,95.12580068359375,180.07653744506837,99.04070068359376,177.37453744506837,100.65830068359375L100.00003744506836,147.08320068359376L22.62500744506836,100.65830068359375C19.92305944506836,99.04070068359376,19.92305944506836,95.12580068359375,22.62500744506836,93.50830068359375L32.64163744506836,87.49990068359375L100.00003744506836,127.91620068359374L167.35853744506835,87.49990068359375ZM167.35853744506835,126.66620068359374L177.37453744506837,132.67520068359374C180.07653744506837,134.29220068359376,180.07653744506837,138.20720068359375,177.37453744506837,139.82520068359375L104.29163744506836,183.67520068359374C101.65053744506837,185.26220068359376,98.34943744506836,185.26220068359376,95.70833744506837,183.67520068359374L22.62499744506836,139.82520068359375C19.923049445068358,138.20720068359375,19.923049445068358,134.29220068359376,22.62499744506836,132.67520068359374L32.64163744506836,126.66620068359374L100.00003744506836,167.08320068359376L167.35853744506835,126.66620068359374ZM104.28333744506836,10.90828068359375L177.37453744506837,54.75830068359375C180.07653744506837,56.37580068359375,180.07653744506837,60.29070068359375,177.37453744506837,61.90830068359375L100.00003744506836,108.33330068359375L22.62499744506836,61.90830068359375C19.92305744506836,60.29070068359375,19.92305744506836,56.37580068359375,22.62499744506836,54.75830068359375L95.70833744506837,10.90828068359375C98.34943744506836,9.32150668359375,101.65053744506837,9.32150668359375,104.29163744506836,10.90828068359375L104.28333744506836,10.90828068359375Z" fill="#FFFFFF" fill-opacity="1"/></g></g></g></svg>