<svg xmlns="http://www.w3.org/2000/svg" xmlns:xlink="http://www.w3.org/1999/xlink" fill="none" version="1.1" width="200" height="200" viewBox="0 0 200 200"><defs><clipPath id="master_svg0_8_45"><rect x="0" y="0" width="200" height="200" rx="0"/></clipPath></defs><g style="mix-blend-mode:passthrough"><g style="mix-blend-mode:passthrough" clip-path="url(#master_svg0_8_45)"><g style="mix-blend-mode:passthrough"><path d="M41.66667175292969,33.333371752929686C37.06437175292969,33.333371752929686,33.333371752929686,37.06437175292969,33.333371752929686,41.66667175292969C33.333371752929686,41.66667175292969,33.333371752929686,158.3336717529297,33.333371752929686,158.3336717529297C33.333371752929686,161.9066717529297,35.58247175292969,164.9546717529297,38.74247175292969,166.1396717529297C38.74247175292969,166.1396717529297,127.44067175292969,77.44077175292969,127.44067175292969,77.44077175292969C130.6946717529297,74.18637175292969,135.9716717529297,74.18637175292969,139.22567175292968,77.44077175292969C139.22567175292968,77.44077175292969,166.6666717529297,104.88167175292969,166.6666717529297,104.88167175292969C166.6666717529297,104.88167175292969,166.6666717529297,41.66667175292969,166.6666717529297,41.66667175292969C166.6666717529297,37.064271752929685,162.9356717529297,33.333371752929686,158.3336717529297,33.333371752929686C158.3336717529297,33.333371752929686,41.66667175292969,33.333371752929686,41.66667175292969,33.333371752929686C41.66667175292969,33.333371752929686,41.66667175292969,33.333371752929686,41.66667175292969,33.333371752929686ZM183.3336717529297,124.99167175292969C183.3336717529297,124.99167175292969,183.3336717529297,41.66667175292969,183.3336717529297,41.66667175292969C183.3336717529297,27.85957175292969,172.14067175292968,16.666671752929688,158.3336717529297,16.666671752929688C158.3336717529297,16.666671752929688,41.66667175292969,16.666671752929688,41.66667175292969,16.666671752929688C27.85957175292969,16.666671752929688,16.666671752929688,27.85957175292969,16.666671752929688,41.66667175292969C16.666671752929688,41.66667175292969,16.666671752929688,158.3336717529297,16.666671752929688,158.3336717529297C16.666671752929688,172.14067175292968,27.85957175292969,183.3336717529297,41.66667175292969,183.3336717529297C41.66667175292969,183.3336717529297,158.3336717529297,183.3336717529297,158.3336717529297,183.3336717529297C172.14067175292968,183.3336717529297,183.3336717529297,172.14067175292968,183.3336717529297,158.3336717529297C183.3336717529297,158.3336717529297,183.3336717529297,125.00867175292969,183.3336717529297,125.00867175292969C183.3336717529297,125.00267175292969,183.3336717529297,124.99767175292969,183.3336717529297,124.99167175292969C183.3336717529297,124.99167175292969,183.3336717529297,124.99167175292969,183.3336717529297,124.99167175292969ZM166.6666717529297,128.45167175292968C166.6666717529297,128.45167175292968,133.3336717529297,95.1184717529297,133.3336717529297,95.1184717529297C133.3336717529297,95.1184717529297,61.78507175292969,166.6666717529297,61.78507175292969,166.6666717529297C61.78507175292969,166.6666717529297,158.3336717529297,166.6666717529297,158.3336717529297,166.6666717529297C162.9356717529297,166.6666717529297,166.6666717529297,162.9356717529297,166.6666717529297,158.3336717529297C166.6666717529297,158.3336717529297,166.6666717529297,128.45167175292968,166.6666717529297,128.45167175292968C166.6666717529297,128.45167175292968,166.6666717529297,128.45167175292968,166.6666717529297,128.45167175292968ZM70.83337175292968,66.66667175292969C68.53217175292968,66.66667175292969,66.66667175292969,68.53217175292968,66.66667175292969,70.83337175292968C66.66667175292969,73.13447175292968,68.53217175292968,74.9999717529297,70.83337175292968,74.9999717529297C73.13447175292968,74.9999717529297,74.9999717529297,73.13447175292968,74.9999717529297,70.83337175292968C74.9999717529297,68.53217175292968,73.13447175292968,66.66667175292969,70.83337175292968,66.66667175292969C70.83337175292968,66.66667175292969,70.83337175292968,66.66667175292969,70.83337175292968,66.66667175292969ZM49.99997175292969,70.83337175292968C49.99997175292969,59.327371752929686,59.327371752929686,49.99997175292969,70.83337175292968,49.99997175292969C82.33927175292969,49.99997175292969,91.66667175292969,59.327371752929686,91.66667175292969,70.83337175292968C91.66667175292969,82.33927175292969,82.33927175292969,91.66667175292969,70.83337175292968,91.66667175292969C59.327371752929686,91.66667175292969,49.99997175292969,82.33927175292969,49.99997175292969,70.83337175292968C49.99997175292969,70.83337175292968,49.99997175292969,70.83337175292968,49.99997175292969,70.83337175292968Z" fill-rule="evenodd" fill="#FFFFFF" fill-opacity="1"/></g></g></g></svg>