<svg xmlns="http://www.w3.org/2000/svg" xmlns:xlink="http://www.w3.org/1999/xlink" fill="none" version="1.1" width="200" height="200" viewBox="0 0 200 200"><defs><clipPath id="master_svg0_10_28"><rect x="0" y="0" width="200" height="200" rx="0"/></clipPath></defs><g style="mix-blend-mode:passthrough"><g clip-path="url(#master_svg0_10_28)"><g><path d="M153.03293197631837,129.4670458984375L141.24993197631835,117.6666458984375L153.03293197631837,105.8833458984375C169.42693197631837,89.6326458984375,169.48393197631836,63.1515458984375,153.16193197631836,46.829345898437495C136.83993197631835,30.5072458984375,110.35903197631836,30.5651458984375,94.10833197631835,46.9583458984375L82.32503197631836,58.7500458984375L70.53333197631835,46.9666458984375L82.33333197631836,35.1833458984375C105.11503197631836,12.4016158984375,142.05193197631837,12.4016158984375,164.83293197631835,35.1833458984375C187.61493197631836,57.9651458984375,187.61493197631836,94.9016458984375,164.83293197631835,117.6833458984375L153.04193197631835,129.4670458984375L153.03293197631837,129.4670458984375ZM129.46693197631836,153.0330458984375L117.67503197631837,164.8170458984375C94.89093197631836,187.5850458984375,57.96543197631836,187.5790458984375,35.18923197631836,164.8020458984375C12.41305197631836,142.0260458984375,12.40668197631836,105.1007458984375,35.17503197631836,82.3166458984375L46.96663197631836,70.5333458984375L58.75003197631836,82.3333458984375L46.96663197631836,94.1166458984375C30.57383197631836,110.3674458984375,30.51613197631836,136.8480458984375,46.83813197631836,153.1700458984375C63.16003197631836,169.4920458984375,89.64093197631836,169.4350458984375,105.89163197631837,153.0420458984375L117.67503197631837,141.2580458984375L129.46693197631836,153.0420458984375L129.46693197631836,153.0330458984375ZM123.56693197631836,64.6416458984375L135.35793197631835,76.4333458984375L76.43333197631836,135.3500458984375L64.64163197631837,123.5670458984375L123.56693197631836,64.6500458984375L123.56693197631836,64.6416458984375Z" fill="#FFFFFF" fill-opacity="1"/></g></g></g></svg>